Coordinates
version=1
nRows=16
nColumns=36
inDegrees=yes

Units are S.I. units (second, meters, Newtons, ...)
If the header above contains a line with 'inDegrees', this indicates whether rotational values are in degrees (yes) or radians (no).

endheader
time	pelvis_tilt	pelvis_list	pelvis_rotation	pelvis_tx	pelvis_ty	pelvis_tz	hip_flexion_r	hip_adduction_r	hip_rotation_r	knee_angle_r	knee_angle_r_beta	ankle_angle_r	subtalar_angle_r	mtp_angle_r	hip_flexion_l	hip_adduction_l	hip_rotation_l	knee_angle_l	knee_angle_l_beta	ankle_angle_l	subtalar_angle_l	mtp_angle_l	lumbar_extension	lumbar_bending	lumbar_rotation	arm_flex_r	arm_add_r	arm_rot_r	elbow_flex_r	pro_sup_r	arm_flex_l	arm_add_l	arm_rot_l	elbow_flex_l	pro_sup_l
      1.71000000	    -18.23863047	      0.32949830	      5.30260172	     -0.31807145	      0.61832957	     -0.58199149	     83.34446127	     -6.77595237	      0.59965711	    100.78637141	      1.75905402	     32.50241520	     -5.91106798	     -7.47803790	     80.31662252	     -9.77615029	     -0.49953542	    100.60842673	      1.75594830	     34.01412827	      8.63998863	     -7.47803790	    -44.20968232	     -2.05762390	     -2.53917209	     80.53595369	    -16.32658904	     10.68327260	    143.06386112	    105.93846411	    101.71805448	    -25.34355961	     34.22457882	    140.94601700	    108.55689459
      1.72000000	    -17.85909509	      0.47311827	      5.10529228	     -0.31496323	      0.62767216	     -0.58185631	     81.62688880	     -6.70397134	      0.41766446	     99.27970516	      1.73275774	     32.24024905	     -5.95344501	     -7.47831073	     78.68785374	     -9.82869528	     -0.84134809	     99.23387787	      1.73195790	     33.19374863	      8.46013072	     -7.47831073	    -43.07674511	     -2.32440370	     -2.74144287	     81.28631013	    -18.08013538	      9.91160364	    143.73828114	    105.87268184	    103.87678550	    -27.00621117	     35.77651914	    141.17199446	    108.32007365
      1.73000000	    -17.62392993	      0.73167086	      4.93085722	     -0.31169647	      0.63710900	     -0.58164147	     80.05319842	     -6.70725807	      0.33219178	     97.71174752	      1.70539171	     31.89716829	     -6.17785998	     -7.47913626	     77.09023332	     -9.81174095	     -1.37641404	     97.72813674	      1.70567776	     32.31615824	      7.85911090	     -7.47913626	    -41.62940785	     -2.80323882	     -3.05383538	     81.74593120	    -19.75488165	      8.78610358	    144.14899832	    105.33220989	    106.38912006	    -28.46541837	     38.09050936	    140.95162142	    107.36451250
      1.74000000	    -17.08288030	      0.78007940	      4.72586605	     -0.30806738	      0.64765636	     -0.58134430	     77.94994725	     -6.61316402	     -0.02208916	     95.92413603	      1.67419201	     31.64177697	     -6.14463443	     -7.47942898	     75.12851546	    -10.01907564	     -1.76124838	     96.13804231	      1.67792537	     31.53776093	      7.91070413	     -7.47942898	    -40.45822031	     -2.93534011	     -3.18272855	     82.76933407	    -21.40559574	      8.48540815	    144.36796708	    105.08930293	    108.72416893	    -29.86378893	     39.48315760	    140.58874682	    107.10096682
      1.75000000	    -16.42024772	      0.85183683	      4.60865256	     -0.30401186	      0.65917394	     -0.58135377	     75.56348735	     -6.58385441	     -0.33417769	     93.96043305	      1.63991892	     31.39210462	     -6.16030046	     -7.47967728	     72.85065114	    -10.07106918	     -2.18070741	     94.29565705	      1.64576969	     30.94629508	      7.84111232	     -7.47967728	    -39.31633031	     -2.98483668	     -3.40321773	     83.60549530	    -22.91405113	      8.27853120	    144.35816116	    104.81023673	    111.16563657	    -31.33918582	     41.40306421	    139.92995193	    106.90214927
      1.76000000	    -15.67043535	      0.94872675	      4.57600280	     -0.29964442	      0.67138327	     -0.58160284	     72.96028526	     -6.64621790	     -0.62266954	     91.86989272	      1.60343211	     31.15952523	     -6.25530876	     -7.47999526	     70.37671229	     -9.96759786	     -2.56315507	     92.28167902	      1.61061914	     30.36164909	      7.64336693	     -7.47999526	    -38.23250033	     -3.03976000	     -3.85354004	     84.47066092	    -24.32866582	      8.25626281	    144.19463251	    104.34356870	    114.19996897	    -32.87957434	     44.22907752	    139.07163929	    106.62985559
      1.77000000	    -15.01292732	      1.14348548	      4.57255870	     -0.29499619	      0.68403344	     -0.58172772	     70.41343184	     -6.73283864	     -0.78523438	     89.66527970	      1.56495436	     30.76564805	     -6.42650033	     -7.48065690	     67.85691819	     -9.77956326	     -3.10710344	     90.05107727	      1.57168779	     29.66689430	      7.26992938	     -7.48065690	    -36.97082303	     -3.24275904	     -4.61975414	     84.90233950	    -25.42805159	      8.11229793	    144.01616500	    103.18718925	    117.85200930	    -34.65443289	     48.10234546	    138.20592704	    105.82566707
      1.78000000	    -14.23775402	      1.25182458	      4.55494396	     -0.29010411	      0.69750495	     -0.58160595	     67.64405544	     -6.71958993	     -1.03302142	     87.25983683	      1.52297146	     30.10095712	     -6.62602675	     -7.48490721	     65.16993694	     -9.67106068	     -3.57123490	     87.67355550	      1.53019221	     28.73069649	      7.01316480	     -7.48490721	    -35.75158951	     -3.34668436	     -5.29970893	     85.40053626	    -26.64598123	      8.78237423	    144.09089097	     97.06919359	    121.42703454	    -36.24229852	     52.29695965	    137.72289457	     99.95878476
      1.79000000	    -13.36193113	      1.37906906	      4.55531899	     -0.28475483	      0.71200064	     -0.58146604	     64.66037561	     -6.76275950	     -1.33777395	     84.69196898	      1.47815371	     29.31108453	     -6.66888497	     -7.48534683	     62.26745393	     -9.55514739	     -4.09288360	     85.07527507	      1.48484366	     27.56076723	      6.90627230	     -7.48534683	    -34.59565058	     -3.47102609	     -6.00013126	     85.67983366	    -28.06930277	      9.55933914	    143.84106858	     96.82595713	    125.11967270	    -37.64520128	     56.45293616	    136.59388531	     99.70587493
      1.80000000	    -12.42669613	      1.52408290	      4.63808456	     -0.27913489	      0.72741473	     -0.58165781	     61.49426789	     -6.89733644	     -1.66919081	     81.87379657	      1.42896732	     28.26935874	     -6.67308828	     -7.48567894	     59.23673289	     -9.26475839	     -4.52827854	     82.27160950	      1.43591047	     26.07215501	      6.77333907	     -7.48567894	    -33.45410292	     -3.58669187	     -6.71386609	     85.78901752	    -29.92884669	     11.03841604	    143.53644770	     96.53948311	    128.70520020	    -38.77936010	     60.77258618	    135.48096160	     99.39776237
      1.81000000	    -11.59738976	      1.79321095	      4.77444049	     -0.27356190	      0.74300162	     -0.58173844	     58.45928176	     -7.09249001	     -1.88501089	     78.98311548	      1.37851542	     26.85099817	     -7.18445425	     -7.48642852	     56.30175046	     -8.82221506	     -5.01972379	     79.31796035	      1.38435956	     24.38023551	      6.24592510	     -7.48642852	    -32.12672094	     -3.95676968	     -8.10484725	     85.05802792	    -31.26685222	     12.53577066	    142.92990500	     95.54379634	    133.44256261	    -40.11417255	     66.80664610	    134.77302718	     98.39159121
      1.82000000	    -10.61643271	      1.99770314	      4.87091966	     -0.26808222	      0.75914093	     -0.58136520	     55.25970364	     -7.17729013	     -2.25210315	     75.97210644	      1.32596340	     25.13132785	     -7.70855247	     -7.48777854	     53.21279119	     -8.56304728	     -5.50023200	     76.24495701	      1.33072554	     22.43109832	      6.09199411	     -7.48777854	    -30.69378904	     -4.46490557	     -8.67307732	     83.91719490	    -34.06796571	     14.86202692	    142.47647850	     93.78791409	    136.49328672	    -40.12722018	     71.98279492	    133.60166162	     96.07366684
      1.83000000	     -9.61253391	      2.18082453	      5.02717564	     -0.26223652	      0.77626242	     -0.58108905	     51.89792101	     -7.38139922	     -2.80601529	     72.71393188	      1.26909752	     23.35096125	     -7.64008031	     -7.48807768	     49.97633934	     -8.31669387	     -6.04134997	     72.86201558	      1.27168207	     20.26777129	      6.23706837	     -7.48807768	    -29.11926081	     -5.04630278	     -8.55149301	     81.94223003	    -38.11511645	     17.11422701	    142.17480247	     93.53257941	    137.58081960	    -39.21202194	     75.88171113	    131.71186260	     95.50108033
      1.84000000	     -8.70184007	      2.40317618	      5.23542579	     -0.25572759	      0.79478853	     -0.58114922	     48.36979564	     -7.70845891	     -3.52508773	     68.97255632	      1.20379820	     21.02378050	     -7.96453727	     -7.48849275	     46.56295929	     -7.88876037	     -6.60549462	     68.94961093	      1.20339773	     17.67100083	      5.93794514	     -7.48849275	    -27.72871973	     -5.78989812	     -8.56977521	     78.68414610	    -42.38420536	     18.48808711	    142.31136034	     93.15344707	    138.84955424	    -38.30959145	     80.03515372	    130.36662455	     94.61767908
      1.85000000	     -7.88864828	      2.62737931	      5.53117998	     -0.24865451	      0.81455887	     -0.58179053	     44.63295433	     -8.20907708	     -4.52178172	     64.70007595	      1.12922935	     18.59596917	     -7.49649166	     -7.48873883	     42.98320281	     -7.34075097	     -7.16923700	     64.50835103	      1.12588312	     14.81016498	      6.25057087	     -7.48873883	    -26.34510464	     -6.33121566	     -8.66929953	     74.98046224	    -46.62387000	     20.35518851	    142.49535418	     93.01313525	    139.35215109	    -37.94759305	     83.60454155	    129.71735782	     94.10066741
      1.86000000	     -7.31768349	      2.98939998	      5.84010283	     -0.24110573	      0.83523514	     -0.58253148	     40.88996389	     -8.78829454	     -5.54073294	     59.88933469	      1.04526608	     15.51259040	     -7.51114255	     -7.49249989	     39.31457012	     -6.52613327	     -7.78926387	     59.36236544	      1.03606873	     11.48641284	      5.82365570	     -7.49249989	    -24.65784648	     -6.98251152	     -8.38448492	     69.52301932	    -51.16425923	     21.06684173	    143.20498332	     90.60305636	    138.73718488	    -37.87977286	     87.50980349	    130.41158491	     86.79258071
